<svg xmlns="http://www.w3.org/2000/svg" xmlns:xlink="http://www.w3.org/1999/xlink" width="320" zoomAndPan="magnify" viewBox="0 0 240 60" height="80" preserveAspectRatio="xMidYMid meet" version="1.0"><defs><g/></defs><g fill="#3b9f74" fill-opacity="1"><g transform="translate(0.351562, 45.677681)"><g><path d="M 2.03125 -11.734375 C 2.03125 -13.847656 2.351562 -15.695312 3 -17.28125 C 3.65625 -18.863281 4.507812 -20.179688 5.5625 -21.234375 C 6.625 -22.296875 7.84375 -23.097656 9.21875 -23.640625 C 10.59375 -24.179688 12.003906 -24.453125 13.453125 -24.453125 C 16.835938 -24.453125 19.507812 -23.414062 21.46875 -21.34375 C 23.4375 -19.28125 24.421875 -16.242188 24.421875 -12.234375 C 24.421875 -11.835938 24.40625 -11.40625 24.375 -10.9375 C 24.34375 -10.46875 24.3125 -10.050781 24.28125 -9.6875 L 8.96875 -9.6875 C 9.113281 -8.300781 9.757812 -7.195312 10.90625 -6.375 C 12.0625 -5.5625 13.601562 -5.15625 15.53125 -5.15625 C 16.769531 -5.15625 17.984375 -5.269531 19.171875 -5.5 C 20.367188 -5.726562 21.347656 -6.007812 22.109375 -6.34375 L 23.015625 -0.859375 C 22.648438 -0.679688 22.164062 -0.5 21.5625 -0.3125 C 20.957031 -0.132812 20.285156 0.0195312 19.546875 0.15625 C 18.804688 0.289062 18.015625 0.40625 17.171875 0.5 C 16.328125 0.59375 15.476562 0.640625 14.625 0.640625 C 12.488281 0.640625 10.625 0.320312 9.03125 -0.3125 C 7.445312 -0.945312 6.132812 -1.816406 5.09375 -2.921875 C 4.050781 -4.023438 3.28125 -5.332031 2.78125 -6.84375 C 2.28125 -8.351562 2.03125 -9.984375 2.03125 -11.734375 Z M 17.890625 -14.3125 C 17.859375 -14.882812 17.757812 -15.441406 17.59375 -15.984375 C 17.425781 -16.535156 17.171875 -17.019531 16.828125 -17.4375 C 16.484375 -17.863281 16.046875 -18.210938 15.515625 -18.484375 C 14.984375 -18.753906 14.328125 -18.890625 13.546875 -18.890625 C 12.785156 -18.890625 12.132812 -18.757812 11.59375 -18.5 C 11.050781 -18.25 10.597656 -17.910156 10.234375 -17.484375 C 9.867188 -17.054688 9.585938 -16.5625 9.390625 -16 C 9.203125 -15.445312 9.0625 -14.882812 8.96875 -14.3125 Z M 17.890625 -14.3125 "/></g></g></g><g fill="#3b9f74" fill-opacity="1"><g transform="translate(26.795802, 45.677681)"><g><path d="M 17.53125 -17.84375 C 16.925781 -18 16.210938 -18.160156 15.390625 -18.328125 C 14.578125 -18.492188 13.707031 -18.578125 12.78125 -18.578125 C 12.351562 -18.578125 11.84375 -18.535156 11.25 -18.453125 C 10.664062 -18.378906 10.222656 -18.296875 9.921875 -18.203125 L 9.921875 0 L 3.171875 0 L 3.171875 -22.5625 C 4.378906 -22.976562 5.804688 -23.375 7.453125 -23.75 C 9.097656 -24.132812 10.929688 -24.328125 12.953125 -24.328125 C 13.316406 -24.328125 13.753906 -24.300781 14.265625 -24.25 C 14.773438 -24.207031 15.285156 -24.148438 15.796875 -24.078125 C 16.316406 -24.003906 16.832031 -23.910156 17.34375 -23.796875 C 17.863281 -23.691406 18.300781 -23.566406 18.65625 -23.421875 Z M 17.53125 -17.84375 "/></g></g></g><g fill="#3b9f74" fill-opacity="1"><g transform="translate(45.904482, 45.677681)"><g><path d="M 8.921875 -12.6875 C 8.921875 -8.90625 10.445312 -7.015625 13.5 -7.015625 C 14.195312 -7.015625 14.847656 -7.101562 15.453125 -7.28125 C 16.054688 -7.46875 16.566406 -7.679688 16.984375 -7.921875 L 16.984375 -18.703125 C 16.648438 -18.765625 16.253906 -18.816406 15.796875 -18.859375 C 15.347656 -18.910156 14.820312 -18.9375 14.21875 -18.9375 C 12.4375 -18.9375 11.109375 -18.347656 10.234375 -17.171875 C 9.359375 -15.992188 8.921875 -14.5 8.921875 -12.6875 Z M 23.734375 -2.984375 C 23.734375 0.910156 22.742188 3.800781 20.765625 5.6875 C 18.785156 7.570312 15.726562 8.515625 11.59375 8.515625 C 10.144531 8.515625 8.695312 8.382812 7.25 8.125 C 5.800781 7.875 4.457031 7.535156 3.21875 7.109375 L 4.390625 1.453125 C 5.453125 1.867188 6.5625 2.195312 7.71875 2.4375 C 8.882812 2.6875 10.207031 2.8125 11.6875 2.8125 C 13.613281 2.8125 14.976562 2.382812 15.78125 1.53125 C 16.582031 0.6875 16.984375 -0.394531 16.984375 -1.71875 L 16.984375 -2.578125 C 16.265625 -2.242188 15.519531 -1.992188 14.75 -1.828125 C 13.976562 -1.660156 13.140625 -1.578125 12.234375 -1.578125 C 8.941406 -1.578125 6.414062 -2.550781 4.65625 -4.5 C 2.90625 -6.445312 2.03125 -9.175781 2.03125 -12.6875 C 2.03125 -14.4375 2.300781 -16.023438 2.84375 -17.453125 C 3.394531 -18.890625 4.191406 -20.117188 5.234375 -21.140625 C 6.273438 -22.171875 7.550781 -22.96875 9.0625 -23.53125 C 10.570312 -24.09375 12.273438 -24.375 14.171875 -24.375 C 14.992188 -24.375 15.832031 -24.332031 16.6875 -24.25 C 17.550781 -24.175781 18.40625 -24.078125 19.25 -23.953125 C 20.09375 -23.835938 20.898438 -23.695312 21.671875 -23.53125 C 22.441406 -23.363281 23.128906 -23.191406 23.734375 -23.015625 Z M 23.734375 -2.984375 "/></g></g></g><g fill="#3b9f74" fill-opacity="1"><g transform="translate(72.801529, 45.677681)"><g><path d="M 25.453125 -11.953125 C 25.453125 -10.085938 25.179688 -8.375 24.640625 -6.8125 C 24.097656 -5.257812 23.3125 -3.929688 22.28125 -2.828125 C 21.257812 -1.722656 20.03125 -0.867188 18.59375 -0.265625 C 17.15625 0.335938 15.546875 0.640625 13.765625 0.640625 C 12.015625 0.640625 10.421875 0.335938 8.984375 -0.265625 C 7.554688 -0.867188 6.328125 -1.722656 5.296875 -2.828125 C 4.273438 -3.929688 3.472656 -5.257812 2.890625 -6.8125 C 2.316406 -8.375 2.03125 -10.085938 2.03125 -11.953125 C 2.03125 -13.828125 2.328125 -15.535156 2.921875 -17.078125 C 3.515625 -18.617188 4.332031 -19.929688 5.375 -21.015625 C 6.414062 -22.109375 7.648438 -22.953125 9.078125 -23.546875 C 10.515625 -24.148438 12.078125 -24.453125 13.765625 -24.453125 C 15.492188 -24.453125 17.070312 -24.148438 18.5 -23.546875 C 19.9375 -22.953125 21.164062 -22.109375 22.1875 -21.015625 C 23.21875 -19.929688 24.019531 -18.617188 24.59375 -17.078125 C 25.164062 -15.535156 25.453125 -13.828125 25.453125 -11.953125 Z M 18.578125 -11.953125 C 18.578125 -14.035156 18.160156 -15.671875 17.328125 -16.859375 C 16.492188 -18.054688 15.304688 -18.65625 13.765625 -18.65625 C 12.222656 -18.65625 11.03125 -18.054688 10.1875 -16.859375 C 9.34375 -15.671875 8.921875 -14.035156 8.921875 -11.953125 C 8.921875 -9.867188 9.34375 -8.210938 10.1875 -6.984375 C 11.03125 -5.765625 12.222656 -5.15625 13.765625 -5.15625 C 15.304688 -5.15625 16.492188 -5.765625 17.328125 -6.984375 C 18.160156 -8.210938 18.578125 -9.867188 18.578125 -11.953125 Z M 18.578125 -11.953125 "/></g></g></g><g fill="#000000" fill-opacity="1"><g transform="translate(100.27734, 45.677681)"><g><path d="M 16.265625 -12.640625 C 16.265625 -14.816406 15.984375 -16.351562 15.421875 -17.25 C 14.859375 -18.15625 13.898438 -18.609375 12.546875 -18.609375 C 12.117188 -18.609375 11.675781 -18.585938 11.21875 -18.546875 C 10.769531 -18.503906 10.335938 -18.453125 9.921875 -18.390625 L 9.921875 0 L 3.171875 0 L 3.171875 -23.015625 C 3.742188 -23.160156 4.414062 -23.316406 5.1875 -23.484375 C 5.957031 -23.648438 6.769531 -23.800781 7.625 -23.9375 C 8.488281 -24.070312 9.375 -24.175781 10.28125 -24.25 C 11.1875 -24.332031 12.078125 -24.375 12.953125 -24.375 C 14.671875 -24.375 16.066406 -24.15625 17.140625 -23.71875 C 18.210938 -23.28125 19.097656 -22.757812 19.796875 -22.15625 C 20.765625 -22.84375 21.875 -23.382812 23.125 -23.78125 C 24.375 -24.175781 25.53125 -24.375 26.59375 -24.375 C 28.488281 -24.375 30.046875 -24.109375 31.265625 -23.578125 C 32.492188 -23.046875 33.46875 -22.296875 34.1875 -21.328125 C 34.914062 -20.367188 35.414062 -19.222656 35.6875 -17.890625 C 35.96875 -16.566406 36.109375 -15.085938 36.109375 -13.453125 L 36.109375 0 L 29.359375 0 L 29.359375 -12.640625 C 29.359375 -14.816406 29.078125 -16.351562 28.515625 -17.25 C 27.953125 -18.15625 26.992188 -18.609375 25.640625 -18.609375 C 25.273438 -18.609375 24.765625 -18.519531 24.109375 -18.34375 C 23.460938 -18.164062 22.929688 -17.941406 22.515625 -17.671875 C 22.722656 -16.972656 22.859375 -16.238281 22.921875 -15.46875 C 22.984375 -14.695312 23.015625 -13.875 23.015625 -13 L 23.015625 0 L 16.265625 0 Z M 16.265625 -12.640625 "/></g></g></g><g fill="#000000" fill-opacity="1"><g transform="translate(139.309759, 45.677681)"><g><path d="M 12.28125 -4.703125 C 12.9375 -4.703125 13.566406 -4.71875 14.171875 -4.75 C 14.773438 -4.78125 15.257812 -4.828125 15.625 -4.890625 L 15.625 -10.015625 C 15.351562 -10.066406 14.945312 -10.125 14.40625 -10.1875 C 13.863281 -10.25 13.363281 -10.28125 12.90625 -10.28125 C 12.269531 -10.28125 11.671875 -10.242188 11.109375 -10.171875 C 10.554688 -10.097656 10.066406 -9.953125 9.640625 -9.734375 C 9.222656 -9.523438 8.894531 -9.238281 8.65625 -8.875 C 8.414062 -8.507812 8.296875 -8.054688 8.296875 -7.515625 C 8.296875 -6.460938 8.648438 -5.726562 9.359375 -5.3125 C 10.066406 -4.90625 11.039062 -4.703125 12.28125 -4.703125 Z M 11.734375 -24.453125 C 13.722656 -24.453125 15.378906 -24.222656 16.703125 -23.765625 C 18.035156 -23.316406 19.101562 -22.671875 19.90625 -21.828125 C 20.707031 -20.984375 21.273438 -19.957031 21.609375 -18.75 C 21.941406 -17.539062 22.109375 -16.195312 22.109375 -14.71875 L 22.109375 -0.671875 C 21.140625 -0.460938 19.789062 -0.21875 18.0625 0.0625 C 16.34375 0.351562 14.265625 0.5 11.828125 0.5 C 10.285156 0.5 8.882812 0.363281 7.625 0.09375 C 6.375 -0.175781 5.296875 -0.617188 4.390625 -1.234375 C 3.484375 -1.859375 2.785156 -2.664062 2.296875 -3.65625 C 1.816406 -4.65625 1.578125 -5.882812 1.578125 -7.34375 C 1.578125 -8.726562 1.859375 -9.90625 2.421875 -10.875 C 2.984375 -11.84375 3.726562 -12.613281 4.65625 -13.1875 C 5.59375 -13.757812 6.664062 -14.171875 7.875 -14.421875 C 9.082031 -14.679688 10.335938 -14.8125 11.640625 -14.8125 C 12.515625 -14.8125 13.289062 -14.769531 13.96875 -14.6875 C 14.65625 -14.613281 15.207031 -14.519531 15.625 -14.40625 L 15.625 -15.03125 C 15.625 -16.1875 15.273438 -17.109375 14.578125 -17.796875 C 13.890625 -18.492188 12.6875 -18.84375 10.96875 -18.84375 C 9.8125 -18.84375 8.675781 -18.757812 7.5625 -18.59375 C 6.445312 -18.425781 5.484375 -18.191406 4.671875 -17.890625 L 3.8125 -23.328125 C 4.195312 -23.453125 4.679688 -23.582031 5.265625 -23.71875 C 5.859375 -23.851562 6.503906 -23.972656 7.203125 -24.078125 C 7.898438 -24.179688 8.628906 -24.269531 9.390625 -24.34375 C 10.160156 -24.414062 10.941406 -24.453125 11.734375 -24.453125 Z M 11.734375 -24.453125 "/></g></g></g><g fill="#000000" fill-opacity="1"><g transform="translate(164.350278, 45.677681)"><g><path d="M 9.921875 -15.21875 C 10.585938 -15.945312 11.273438 -16.703125 11.984375 -17.484375 C 12.691406 -18.265625 13.375 -19.039062 14.03125 -19.8125 C 14.695312 -20.582031 15.328125 -21.316406 15.921875 -22.015625 C 16.515625 -22.710938 17.019531 -23.316406 17.4375 -23.828125 L 25.453125 -23.828125 C 23.859375 -21.984375 22.296875 -20.222656 20.765625 -18.546875 C 19.242188 -16.867188 17.578125 -15.140625 15.765625 -13.359375 C 16.671875 -12.546875 17.601562 -11.570312 18.5625 -10.4375 C 19.53125 -9.3125 20.46875 -8.144531 21.375 -6.9375 C 22.28125 -5.726562 23.109375 -4.519531 23.859375 -3.3125 C 24.617188 -2.101562 25.257812 -1 25.78125 0 L 18.03125 0 C 17.539062 -0.78125 16.988281 -1.644531 16.375 -2.59375 C 15.757812 -3.550781 15.101562 -4.503906 14.40625 -5.453125 C 13.707031 -6.410156 12.972656 -7.328125 12.203125 -8.203125 C 11.429688 -9.078125 10.671875 -9.816406 9.921875 -10.421875 L 9.921875 0 L 3.171875 0 L 3.171875 -34.0625 L 9.921875 -35.15625 Z M 9.921875 -15.21875 "/></g></g></g><g fill="#000000" fill-opacity="1"><g transform="translate(190.568108, 45.677681)"><g><path d="M 2.03125 -11.734375 C 2.03125 -13.847656 2.351562 -15.695312 3 -17.28125 C 3.65625 -18.863281 4.507812 -20.179688 5.5625 -21.234375 C 6.625 -22.296875 7.84375 -23.097656 9.21875 -23.640625 C 10.59375 -24.179688 12.003906 -24.453125 13.453125 -24.453125 C 16.835938 -24.453125 19.507812 -23.414062 21.46875 -21.34375 C 23.4375 -19.28125 24.421875 -16.242188 24.421875 -12.234375 C 24.421875 -11.835938 24.40625 -11.40625 24.375 -10.9375 C 24.34375 -10.46875 24.3125 -10.050781 24.28125 -9.6875 L 8.96875 -9.6875 C 9.113281 -8.300781 9.757812 -7.195312 10.90625 -6.375 C 12.0625 -5.5625 13.601562 -5.15625 15.53125 -5.15625 C 16.769531 -5.15625 17.984375 -5.269531 19.171875 -5.5 C 20.367188 -5.726562 21.347656 -6.007812 22.109375 -6.34375 L 23.015625 -0.859375 C 22.648438 -0.679688 22.164062 -0.5 21.5625 -0.3125 C 20.957031 -0.132812 20.285156 0.0195312 19.546875 0.15625 C 18.804688 0.289062 18.015625 0.40625 17.171875 0.5 C 16.328125 0.59375 15.476562 0.640625 14.625 0.640625 C 12.488281 0.640625 10.625 0.320312 9.03125 -0.3125 C 7.445312 -0.945312 6.132812 -1.816406 5.09375 -2.921875 C 4.050781 -4.023438 3.28125 -5.332031 2.78125 -6.84375 C 2.28125 -8.351562 2.03125 -9.984375 2.03125 -11.734375 Z M 17.890625 -14.3125 C 17.859375 -14.882812 17.757812 -15.441406 17.59375 -15.984375 C 17.425781 -16.535156 17.171875 -17.019531 16.828125 -17.4375 C 16.484375 -17.863281 16.046875 -18.210938 15.515625 -18.484375 C 14.984375 -18.753906 14.328125 -18.890625 13.546875 -18.890625 C 12.785156 -18.890625 12.132812 -18.757812 11.59375 -18.5 C 11.050781 -18.25 10.597656 -17.910156 10.234375 -17.484375 C 9.867188 -17.054688 9.585938 -16.5625 9.390625 -16 C 9.203125 -15.445312 9.0625 -14.882812 8.96875 -14.3125 Z M 17.890625 -14.3125 "/></g></g></g><g fill="#000000" fill-opacity="1"><g transform="translate(217.012347, 45.677681)"><g><path d="M 0 2.765625 L 22.65625 2.765625 L 22.65625 8.375 L 0 8.375 Z M 0 2.765625 "/></g></g></g></svg>