<svg xmlns="http://www.w3.org/2000/svg" xmlns:xlink="http://www.w3.org/1999/xlink" width="900" zoomAndPan="magnify" viewBox="0 0 675 675.000002" height="900" preserveAspectRatio="xMidYMid meet" version="1.0"><defs><g/></defs><g fill="#3b9f74" fill-opacity="1"><g transform="translate(17.05091, 458.695489)"><g><path d="M 14.828125 -85.296875 C 14.828125 -100.671875 17.1875 -114.117188 21.90625 -125.640625 C 26.625 -137.171875 32.820312 -146.773438 40.5 -154.453125 C 48.1875 -162.140625 57.023438 -167.957031 67.015625 -171.90625 C 77.003906 -175.863281 87.269531 -177.84375 97.8125 -177.84375 C 122.40625 -177.84375 141.835938 -170.320312 156.109375 -155.28125 C 170.378906 -140.238281 177.515625 -118.117188 177.515625 -88.921875 C 177.515625 -86.066406 177.40625 -82.9375 177.1875 -79.53125 C 176.96875 -76.132812 176.75 -73.117188 176.53125 -70.484375 L 65.203125 -70.484375 C 66.304688 -60.378906 71.03125 -52.363281 79.375 -46.4375 C 87.71875 -40.507812 98.914062 -37.546875 112.96875 -37.546875 C 121.96875 -37.546875 130.800781 -38.367188 139.46875 -40.015625 C 148.144531 -41.660156 155.226562 -43.691406 160.71875 -46.109375 L 167.3125 -6.25 C 164.675781 -4.9375 161.160156 -3.617188 156.765625 -2.296875 C 152.378906 -0.984375 147.492188 0.164062 142.109375 1.15625 C 136.734375 2.144531 130.96875 2.96875 124.8125 3.625 C 118.664062 4.28125 112.519531 4.609375 106.375 4.609375 C 90.789062 4.609375 77.234375 2.304688 65.703125 -2.296875 C 54.171875 -6.910156 44.617188 -13.222656 37.046875 -21.234375 C 29.472656 -29.253906 23.875 -38.753906 20.25 -49.734375 C 16.632812 -60.710938 14.828125 -72.566406 14.828125 -85.296875 Z M 130.09375 -104.078125 C 129.875 -108.242188 129.160156 -112.300781 127.953125 -116.25 C 126.742188 -120.207031 124.875 -123.722656 122.34375 -126.796875 C 119.820312 -129.867188 116.640625 -132.394531 112.796875 -134.375 C 108.953125 -136.351562 104.175781 -137.34375 98.46875 -137.34375 C 92.976562 -137.34375 88.257812 -136.40625 84.3125 -134.53125 C 80.363281 -132.664062 77.070312 -130.195312 74.4375 -127.125 C 71.800781 -124.050781 69.769531 -120.484375 68.34375 -116.421875 C 66.914062 -112.359375 65.867188 -108.242188 65.203125 -104.078125 Z M 130.09375 -104.078125 "/></g></g></g><g fill="#000000" fill-opacity="1"><g transform="translate(209.387054, 458.695489)"><g><path d="M 118.234375 -91.890625 C 118.234375 -107.691406 116.203125 -118.882812 112.140625 -125.46875 C 108.078125 -132.0625 101.109375 -135.359375 91.234375 -135.359375 C 88.160156 -135.359375 84.972656 -135.191406 81.671875 -134.859375 C 78.378906 -134.535156 75.195312 -134.15625 72.125 -133.71875 L 72.125 0 L 23.046875 0 L 23.046875 -167.3125 C 27.222656 -168.40625 32.109375 -169.554688 37.703125 -170.765625 C 43.304688 -171.972656 49.234375 -173.070312 55.484375 -174.0625 C 61.742188 -175.050781 68.164062 -175.816406 74.75 -176.359375 C 81.34375 -176.910156 87.820312 -177.1875 94.1875 -177.1875 C 106.707031 -177.1875 116.863281 -175.59375 124.65625 -172.40625 C 132.445312 -169.226562 138.867188 -165.441406 143.921875 -161.046875 C 150.953125 -166.097656 159.019531 -170.050781 168.125 -172.90625 C 177.238281 -175.757812 185.640625 -177.1875 193.328125 -177.1875 C 207.160156 -177.1875 218.519531 -175.265625 227.40625 -171.421875 C 236.300781 -167.578125 243.382812 -162.140625 248.65625 -155.109375 C 253.925781 -148.085938 257.546875 -139.742188 259.515625 -130.078125 C 261.492188 -120.421875 262.484375 -109.664062 262.484375 -97.8125 L 262.484375 0 L 213.421875 0 L 213.421875 -91.890625 C 213.421875 -107.691406 211.390625 -118.882812 207.328125 -125.46875 C 203.265625 -132.0625 196.289062 -135.359375 186.40625 -135.359375 C 183.769531 -135.359375 180.09375 -134.695312 175.375 -133.375 C 170.65625 -132.0625 166.757812 -130.414062 163.6875 -128.4375 C 165.21875 -123.394531 166.203125 -118.070312 166.640625 -112.46875 C 167.085938 -106.875 167.3125 -100.890625 167.3125 -94.515625 L 167.3125 0 L 118.234375 0 Z M 118.234375 -91.890625 "/></g></g></g><g fill="#000000" fill-opacity="1"><g transform="translate(493.283745, 458.695489)"><g><path d="M 0 20.09375 L 164.671875 20.09375 L 164.671875 60.921875 L 0 60.921875 Z M 0 20.09375 "/></g></g></g></svg>