<svg xmlns="http://www.w3.org/2000/svg" xmlns:xlink="http://www.w3.org/1999/xlink" width="900" zoomAndPan="magnify" viewBox="0 0 675 675.000002" height="900" preserveAspectRatio="xMidYMid meet" version="1.0"><defs><g/></defs><g fill="#3b9f74" fill-opacity="1"><g transform="translate(17.217655, 454.950987)"><g><path d="M 14.8125 -85.28125 C 14.8125 -100.644531 17.171875 -114.085938 21.890625 -125.609375 C 26.609375 -137.128906 32.804688 -146.726562 40.484375 -154.40625 C 48.171875 -162.09375 57.007812 -167.910156 67 -171.859375 C 76.988281 -175.816406 87.25 -177.796875 97.78125 -177.796875 C 122.363281 -177.796875 141.789062 -170.273438 156.0625 -155.234375 C 170.332031 -140.203125 177.46875 -118.085938 177.46875 -88.890625 C 177.46875 -86.046875 177.359375 -82.921875 177.140625 -79.515625 C 176.921875 -76.109375 176.703125 -73.085938 176.484375 -70.453125 L 65.1875 -70.453125 C 66.289062 -60.359375 71.007812 -52.347656 79.34375 -46.421875 C 87.6875 -40.492188 98.882812 -37.53125 112.9375 -37.53125 C 121.9375 -37.53125 130.769531 -38.351562 139.4375 -40 C 148.101562 -41.644531 155.179688 -43.675781 160.671875 -46.09375 L 167.265625 -6.25 C 164.628906 -4.9375 161.113281 -3.617188 156.71875 -2.296875 C 152.332031 -0.984375 147.445312 0.164062 142.0625 1.15625 C 136.6875 2.144531 130.925781 2.96875 124.78125 3.625 C 118.632812 4.28125 112.488281 4.609375 106.34375 4.609375 C 90.757812 4.609375 77.207031 2.304688 65.6875 -2.296875 C 54.164062 -6.910156 44.617188 -13.222656 37.046875 -21.234375 C 29.472656 -29.242188 23.875 -38.734375 20.25 -49.703125 C 16.625 -60.679688 14.8125 -72.539062 14.8125 -85.28125 Z M 130.046875 -104.046875 C 129.828125 -108.210938 129.113281 -112.269531 127.90625 -116.21875 C 126.707031 -120.175781 124.84375 -123.691406 122.3125 -126.765625 C 119.789062 -129.835938 116.609375 -132.359375 112.765625 -134.328125 C 108.921875 -136.304688 104.148438 -137.296875 98.453125 -137.296875 C 92.960938 -137.296875 88.238281 -136.363281 84.28125 -134.5 C 80.332031 -132.632812 77.039062 -130.164062 74.40625 -127.09375 C 71.769531 -124.019531 69.738281 -120.453125 68.3125 -116.390625 C 66.882812 -112.328125 65.84375 -108.210938 65.1875 -104.046875 Z M 130.046875 -104.046875 "/></g></g></g><g fill="#f2f2f2" fill-opacity="1"><g transform="translate(209.413382, 454.950987)"><g><path d="M 118.203125 -91.859375 C 118.203125 -107.660156 116.171875 -118.851562 112.109375 -125.4375 C 108.046875 -132.03125 101.078125 -135.328125 91.203125 -135.328125 C 88.128906 -135.328125 84.945312 -135.160156 81.65625 -134.828125 C 78.363281 -134.492188 75.179688 -134.109375 72.109375 -133.671875 L 72.109375 0 L 23.046875 0 L 23.046875 -167.265625 C 27.210938 -168.359375 32.09375 -169.507812 37.6875 -170.71875 C 43.289062 -171.925781 49.21875 -173.019531 55.46875 -174 C 61.726562 -174.988281 68.148438 -175.757812 74.734375 -176.3125 C 81.328125 -176.863281 87.804688 -177.140625 94.171875 -177.140625 C 106.679688 -177.140625 116.832031 -175.546875 124.625 -172.359375 C 132.414062 -169.179688 138.832031 -165.394531 143.875 -161 C 150.90625 -166.050781 158.972656 -170.003906 168.078125 -172.859375 C 177.191406 -175.710938 185.585938 -177.140625 193.265625 -177.140625 C 207.097656 -177.140625 218.457031 -175.21875 227.34375 -171.375 C 236.238281 -167.53125 243.316406 -162.097656 248.578125 -155.078125 C 253.847656 -148.054688 257.46875 -139.710938 259.4375 -130.046875 C 261.414062 -120.390625 262.40625 -109.632812 262.40625 -97.78125 L 262.40625 0 L 213.359375 0 L 213.359375 -91.859375 C 213.359375 -107.660156 211.328125 -118.851562 207.265625 -125.4375 C 203.203125 -132.03125 196.234375 -135.328125 186.359375 -135.328125 C 183.722656 -135.328125 180.046875 -134.664062 175.328125 -133.34375 C 170.609375 -132.03125 166.710938 -130.382812 163.640625 -128.40625 C 165.171875 -123.351562 166.15625 -118.03125 166.59375 -112.4375 C 167.039062 -106.84375 167.265625 -100.863281 167.265625 -94.5 L 167.265625 0 L 118.203125 0 Z M 118.203125 -91.859375 "/></g></g></g><g fill="#f2f2f2" fill-opacity="1"><g transform="translate(493.099537, 454.950987)"><g><path d="M 0 20.078125 L 164.625 20.078125 L 164.625 60.90625 L 0 60.90625 Z M 0 20.078125 "/></g></g></g></svg>